# xmcd
#
# Track frame offsets:
#	150
#	23111
#	36931
#	54002
#	71661
#	88970
#	109376
#	122188
#	140383
#	157977
#	172952
#	190506
#	211211
#	226528
#	243428
#	260807
#	276398
#	287164
#	302563
#	320369
#	334209
#
# Disc length: 4692 seconds
#
# Revision: 1
# Processed by: cddbd v1.5.2PL0 Copyright (c) Steve Scherf et al.
# Submitted via: audiograbber 1.83.01
#
DISCID=2d125215
DTITLE=Volker Lechtenbrink - Der ganze Lechtenbrink [CD 5)
DYEAR=1900
DGENRE=Country
TTITLE0=Da seid ihr zwei
TTITLE1=Lieb Vaterland
TTITLE2=Zurückgelehnt
TTITLE3=Ein paar Jahre mehr
TTITLE4=Die Hölle ist in mir
TTITLE5=Narrenhände
TTITLE6=Schlafe mein Papa
TTITLE7=Was können wir denn dafür tun
TTITLE8=Annonce
TTITLE9=Zu heiss für das Eis
TTITLE10=Betrogener Betrüger
TTITLE11=Verlorene Seelen
TTITLE12=Der Vorhang fällt
TTITLE13=Sag ganz einfach ja
TTITLE14=Es ist nie zu spät
TTITLE15=Deine Art
TTITLE16=Das stört kaum
TTITLE17=Herzschlag
TTITLE18=Wenn die Nacht kommt
TTITLE19=Du gehörst nicht mehr dazu
TTITLE20=Ich bin vernarrt
EXTD=
EXTT0=
EXTT1=
EXTT2=
EXTT3=
EXTT4=
EXTT5=
EXTT6=
EXTT7=
EXTT8=
EXTT9=
EXTT10=
EXTT11=
EXTT12=
EXTT13=
EXTT14=
EXTT15=
EXTT16=
EXTT17=
EXTT18=
EXTT19=
EXTT20=
PLAYORDER=
